<?xml version="1.0" encoding="iso-8859-1"?>
<!-- Generator: Adobe Illustrator 19.0.0, SVG Export Plug-In . SVG Version: 6.00 Build 0)  -->
<svg version="1.1" id="Layer_1" xmlns="http://www.w3.org/2000/svg" xmlns:xlink="http://www.w3.org/1999/xlink" x="0px" y="0px"
	 viewBox="0 0 504.54 504.54" style="enable-background:new 0 0 504.54 504.54;" xml:space="preserve">
<g>
	<g>
		<g>
			<path d="M263.123,121.839l-10.428-26.078l-10.428,26.078c-1.109,2.773-3.584,4.762-6.528,5.248l-38.707,6.451l24.986,24.986
				c1.946,1.954,2.833,4.719,2.381,7.441l-6.135,36.83l30.046-18.022c2.697-1.621,6.084-1.621,8.781,0l30.037,18.022l-6.135-36.83
				c-0.452-2.722,0.435-5.487,2.381-7.441l24.986-24.986l-38.707-6.451C266.707,126.601,264.232,124.612,263.123,121.839z"/>
			<path d="M388.485,162.305c-5.53-5.146-8.414-11.298-7.893-16.87c0.375-4.156,2.679-7.689,6.656-10.223
				c0.529-0.333,1.007-0.725,1.451-1.161l7.552-7.552c11.119-11.127,14.054-27.554,7.484-41.847
				c-6.571-14.285-20.855-22.673-36.642-21.53l-11.196,0.862c-5.675,0.41-11.068-1.451-15.223-5.308
				c-4.156-3.849-6.451-9.088-6.451-14.763v-6.656c0-16.017-9.762-29.79-24.883-35.098c-14.814-5.197-30.711-0.819-40.755,11.145
				c-8.542,6.741-24.499,6.793-32.555,0.085C225.993,1.358,210.036-3.054,195.197,2.16c-15.113,5.308-24.883,19.081-24.883,35.098
				v6.656c0,5.675-2.287,10.914-6.451,14.763c-4.156,3.857-9.523,5.726-15.215,5.308l-11.196-0.862
				c-15.795-1.178-30.071,7.245-36.642,21.53c-6.579,14.302-3.635,30.729,7.492,41.847l7.535,7.552
				c0.725,0.717,1.57,1.306,2.5,1.732c3.635,1.655,5.777,4.087,6.366,7.245c1.033,5.444-2.313,12.757-8.866,19.482l-7.535,7.552
				c-11.128,11.119-14.071,27.546-7.492,41.839c6.571,14.302,21.026,22.733,36.642,21.538l11.187-0.862
				c5.897-0.495,11.648,1.604,15.983,5.632c3.874,3.593,6.093,8.414,6.076,13.252v12.979c0.008,15.061,7.654,27.648,20.446,33.647
				c13.79,6.468,30.353,3.84,43.247-6.861c0.324-0.273,0.632-0.572,0.913-0.896l1.92-2.15c2.56-2.867,8.602-4.796,15.053-4.796
				c6.443,0,12.484,1.929,15.036,4.796l1.92,2.15c0.239,0.273,0.503,0.529,0.768,0.768c7.945,6.921,17.86,10.53,27.776,10.53
				c5.854,0,11.725-1.263,17.169-3.857c12.8-6.076,20.173-18.005,19.712-31.607V252.98c-0.154-5.837,2.022-11.187,6.127-15.078
				c4.062-3.866,9.412-5.769,15.104-5.325l11.204,0.862c15.753,1.152,30.063-7.245,36.642-21.53
				c6.571-14.293,3.635-30.72-7.484-41.856L388.485,162.305z M332.148,133.88l-33.604,33.604L307,218.215
				c0.546,3.285-0.87,6.588-3.618,8.465c-1.442,0.981-3.115,1.476-4.804,1.476c-1.51,0-3.029-0.41-4.386-1.22l-41.498-24.9
				l-41.498,24.9c-2.867,1.715-6.451,1.613-9.19-0.256c-2.748-1.877-4.164-5.18-3.618-8.465l8.448-50.731L173.24,133.88
				c-2.261-2.261-3.063-5.598-2.091-8.636c0.973-3.046,3.567-5.291,6.724-5.811l50.321-8.388l16.58-41.429
				c1.297-3.243,4.429-5.367,7.919-5.367c3.499,0,6.63,2.125,7.927,5.367l16.572,41.429l50.321,8.388
				c3.157,0.521,5.751,2.765,6.724,5.811C335.211,128.282,334.409,131.619,332.148,133.88z"/>
			<path d="M322.272,313.189c-7.68,3.652-15.923,5.504-24.499,5.504h-0.017c-13.193,0-26.027-4.548-36.523-12.783v52.497
				c0,4.719-3.814,8.533-8.533,8.533c-4.719,0-8.533-3.814-8.533-8.533v-53.274c-10.991,8.695-24.073,13.517-37.222,13.517
				c-8.064,0-15.821-1.724-23.057-5.111c-6.46-3.038-11.998-7.33-16.58-12.467l-0.034,194.935c0,3.618,2.278,6.844,5.683,8.047
				c0.93,0.333,1.903,0.486,2.85,0.486c2.526,0,4.975-1.118,6.63-3.157l70.298-86.793l70.118,85.76
				c2.295,2.79,6.093,3.831,9.481,2.628c3.396-1.212,5.666-4.429,5.666-8.038V301.703
				C333.621,306.311,328.398,310.279,322.272,313.189z"/>
		</g>
	</g>
</g>
<g>
</g>
<g>
</g>
<g>
</g>
<g>
</g>
<g>
</g>
<g>
</g>
<g>
</g>
<g>
</g>
<g>
</g>
<g>
</g>
<g>
</g>
<g>
</g>
<g>
</g>
<g>
</g>
<g>
</g>
</svg>
