<?xml version="1.0" encoding="iso-8859-1"?>
<!-- Generator: Adobe Illustrator 17.1.0, SVG Export Plug-In . SVG Version: 6.00 Build 0)  -->
<!DOCTYPE svg PUBLIC "-//W3C//DTD SVG 1.1//EN" "http://www.w3.org/Graphics/SVG/1.1/DTD/svg11.dtd">
<svg version="1.1" id="Capa_1" xmlns="http://www.w3.org/2000/svg" xmlns:xlink="http://www.w3.org/1999/xlink" x="0px" y="0px"
	 viewBox="0 0 465.044 465.044" style="enable-background:new 0 0 465.044 465.044;" xml:space="preserve">
<g>
	<path d="M431.529,113.277c-43.099-35.743-131.06-48.478-199.007-48.478c-67.948,0-155.909,12.735-199.006,48.478
		c-38.17,31.656-33.439,95.62-33.22,98.327c0.239,2.939,2.179,5.466,4.957,6.457c1.092,0.389,27.342,9.538,78.999,9.538
		c4.142,0,7.5-3.358,7.5-7.5s-3.358-7.5-7.5-7.5c-36.605,0-59.819-4.844-69.204-7.29c-0.25-14.836,1.427-58.411,28.043-80.486
		C83.118,91.627,167.19,79.799,232.522,79.799s149.403,11.828,189.431,45.024c26.537,22.008,28.264,65.642,28.035,80.487
		c-9.401,2.449-32.61,7.288-69.194,7.288c-4.143,0-7.5,3.358-7.5,7.5s3.357,7.5,7.5,7.5c51.655,0,77.905-9.148,78.997-9.538
		c2.778-0.991,4.718-3.517,4.957-6.457C464.968,208.897,469.699,144.934,431.529,113.277z"/>
	<path d="M232.522,176.788c-42.734,0-77.5,34.766-77.5,77.5s34.766,77.5,77.5,77.5c42.733,0,77.5-34.766,77.5-77.5
		S275.256,176.788,232.522,176.788z M232.522,316.788c-34.462,0-62.5-28.038-62.5-62.5s28.038-62.5,62.5-62.5
		c34.463,0,62.5,28.038,62.5,62.5S266.985,316.788,232.522,316.788z"/>
	<path d="M257.679,246.788c-4.143,0-7.5,3.358-7.5,7.5c0,9.736-7.921,17.656-17.656,17.656c-9.736,0-17.656-7.92-17.656-17.656
		c0-9.736,7.92-17.656,17.656-17.656c4.143,0,7.5-3.358,7.5-7.5s-3.357-7.5-7.5-7.5c-18.007,0-32.656,14.649-32.656,32.656
		s14.649,32.656,32.656,32.656s32.656-14.649,32.656-32.656C265.179,250.146,261.821,246.788,257.679,246.788z"/>
	<path d="M366.813,243.54c-4.986-6.563-9.36-19.552-9.36-27.796v-44.029c0-13.091-9.692-26.692-22.066-30.965
		c-1.276-0.441-32.086-10.801-102.864-10.801s-101.588,10.36-102.865,10.801c-12.373,4.273-22.065,17.875-22.065,30.965v44.029
		c0,8.243-4.374,21.232-9.361,27.796L65.76,286.282c-6.962,9.165-12.417,25.36-12.417,36.87v51.592c0,14.061,11.439,25.5,25.5,25.5
		h307.359c14.061,0,25.5-11.439,25.5-25.5v-51.592c0-11.509-5.454-27.704-12.417-36.87L366.813,243.54z M396.702,374.745
		c0,5.79-4.71,10.5-10.5,10.5H78.843c-5.79,0-10.5-4.71-10.5-10.5v-51.592c0-8.243,4.374-21.232,9.361-27.796l32.472-42.743
		c6.962-9.165,12.417-25.36,12.417-36.87v-44.029c0-6.742,5.59-14.586,11.944-16.781c0.294-0.1,30.181-9.985,97.986-9.985
		s97.691,9.886,97.968,9.979c6.373,2.201,11.963,10.045,11.963,16.787v44.029c0,11.51,5.454,27.706,12.417,36.87l32.471,42.742
		c4.987,6.565,9.361,19.554,9.361,27.796V374.745z"/>
</g>
<g>
</g>
<g>
</g>
<g>
</g>
<g>
</g>
<g>
</g>
<g>
</g>
<g>
</g>
<g>
</g>
<g>
</g>
<g>
</g>
<g>
</g>
<g>
</g>
<g>
</g>
<g>
</g>
<g>
</g>
</svg>
